# xmcd
#
# Track frame offsets: 
#        150
#        21391
#        51148
#        73767
#        101710
#        133733
#        164095
#        192873
#        224897
#        256148
#        284567
#
# Disc length: 4209 seconds
#
# Revision: 0
# Processed by: cddbd v1.5.2PL0 Copyright (c) Steve Scherf et al.
# Submitted via: ExactAudioCopy v1.0b3
#
DISCID=b7106f0b
DTITLE=Various Artist - Dance Factory - CD 2
DYEAR=1900
DGENRE=
TTITLE0=DJ Hagen Pres. - Kernkraft 400 (DJ Hagen's Original Version)
TTITLE1=Mario Piu Feat. Gare Mat K - Champ Elisees (Xtd Mix)
TTITLE2=Atropin Project - Patrick (Dust Mix)
TTITLE3=Floorfilla - Anthem #2 (DJ Cerla Floorfiller Mix)
TTITLE4=Wells and Fargo - Nights In Palma (Master Blaster Rmx)
TTITLE5=Ago - Tell Me Where You Are (Xtd Mix)
TTITLE6=T90 - Can't Stop To Follow (Lichtenfels Dub Mix)
TTITLE7=Deep Creek - Nothing At All
TTITLE8=Lichtenfels - B-Boys Fly Girls (Club Mix)
TTITLE9=Alex B. Meets John P. - Enjoy Your Dreams (Xtd Club Mix)
TTITLE10=Phil Dinner - Feel The Light (Club Mix)
EXTD=
EXTT0=
EXTT1=
EXTT2=
EXTT3=
EXTT4=
EXTT5=
EXTT6=
EXTT7=
EXTT8=
EXTT9=
EXTT10=
PLAYORDER=
